<svg width="24" height="22" viewBox="0 0 24 22" fill="none" xmlns="http://www.w3.org/2000/svg">
<path d="M11.9849 17.9296C12.1425 17.836 12.3386 17.8362 12.496 17.93L18.1124 21.2767L18.1125 21.2767C18.7775 21.6733 19.5513 21.0801 19.3863 20.3811L17.8976 14.088C17.8545 13.9055 17.917 13.7143 18.0596 13.5926L23.0263 9.35258L23.0265 9.35243C23.5863 8.87495 23.2973 7.95731 22.5405 7.898L22.5379 7.89779L16.0013 7.35112C15.8172 7.33572 15.6566 7.2201 15.5836 7.05042L13.0258 1.10375L13.0252 1.10217C12.7377 0.427532 11.7424 0.427532 11.455 1.10217L11.4542 1.10413L8.89637 7.03746C8.82331 7.20695 8.66281 7.3224 8.47889 7.33779L1.94229 7.88445L1.93968 7.88467L1.93968 7.88466C1.18288 7.94397 0.893828 8.86161 1.45368 9.3391L1.45385 9.33925L6.42059 13.5792C6.56316 13.701 6.62567 13.8922 6.58252 14.0746L5.09391 20.3677L11.9849 17.9296ZM11.9849 17.9296L6.36856 21.2629L6.36767 21.2634M11.9849 17.9296L6.36767 21.2634M6.36767 21.2634C5.70275 21.6599 4.92907 21.0669 5.09386 20.368L6.36767 21.2634Z" fill="#FFBA79" stroke="#FFBA79" stroke-linejoin="round"/>
</svg>
